# xmcd
#
# Track frame offsets:
#	150
#	16810
#	35873
#	53271
#	75501
#	90738
#	104190
#	116445
#	131835
#	143812
#	154770
#	167795
#
# Disc length: 2617 seconds
#
# Revision: 1
# Processed by: cddbd v1.5.2PL0 Copyright (c) Steve Scherf et al.
# Submitted via: audiograbber 1.83.01
#
DISCID=990a370c
DTITLE=Chad Darou - Raising the Bar
DYEAR=2018
DGENRE=Country
TTITLE0=Raising the Bar
TTITLE1=Heaven
TTITLE2=Tennessee Blues
TTITLE3=The Road
TTITLE4=High, Dry and Lonesome
TTITLE5=Paddy on the Turnpike
TTITLE6=On My Way Home
TTITLE7=Few Old Memories
TTITLE8=What I Like About You
TTITLE9=Kristin's Tune
TTITLE10=Peace of Mind
TTITLE11=Comfortably Numb
EXTD=
EXTT0=
EXTT1=
EXTT2=
EXTT3=
EXTT4=
EXTT5=
EXTT6=
EXTT7=
EXTT8=
EXTT9=
EXTT10=
EXTT11=
PLAYORDER=
